<?xml version="1.0" encoding="UTF-8" standalone="no"?>
<!DOCTYPE svg PUBLIC "-//W3C//DTD SVG 1.1//EN"
 "http://www.w3.org/Graphics/SVG/1.1/DTD/svg11.dtd">
<!-- Generated by graphviz version 2.38.0 (20140413.2041)
 -->
<!-- Title: models_diagram Pages: 1 -->
<svg width="408pt" height="225pt"
 viewBox="0.00 0.00 408.18 225.00" xmlns="http://www.w3.org/2000/svg" xmlns:xlink="http://www.w3.org/1999/xlink">
<g id="graph0" class="graph" transform="scale(1 1) rotate(0) translate(4 221)">
<title>models_diagram</title>
<polygon fill="none" stroke="none" points="-4,4 -4,-221 404.175,-221 404.175,4 -4,4"/>
<!-- _diagram_info -->
<g id="node1" class="node"><title>_diagram_info</title>
<text text-anchor="start" x="8" y="-202.6" font-family="Times,serif" font-size="13.00">Models diagram</text>
<text text-anchor="start" x="8" y="-189.6" font-family="Times,serif" font-size="13.00">Date: Jul 18 2016 &#45; 21:16</text>
<text text-anchor="start" x="8" y="-176.6" font-family="Times,serif" font-size="13.00">Migration version: 20160719000719</text>
<text text-anchor="start" x="8" y="-163.6" font-family="Times,serif" font-size="13.00">Generated by RailRoady 1.5.1</text>
<text text-anchor="start" x="8" y="-150.6" font-family="Times,serif" font-size="13.00">http://railroady.prestonlee.com</text>
</g>
<!-- Category -->
<g id="node2" class="node"><title>Category</title>
<ellipse fill="none" stroke="black" cx="267.688" cy="-180.5" rx="42.5456" ry="18"/>
<text text-anchor="middle" x="267.688" y="-176.3" font-family="Times,serif" font-size="14.00">Category</text>
</g>
<!-- Inventory -->
<g id="node3" class="node"><title>Inventory</title>
<ellipse fill="none" stroke="black" cx="355.688" cy="-18" rx="44.475" ry="18"/>
<text text-anchor="middle" x="355.688" y="-13.8" font-family="Times,serif" font-size="14.00">Inventory</text>
</g>
<!-- User -->
<g id="node4" class="node"><title>User</title>
<ellipse fill="none" stroke="black" cx="355.688" cy="-180.5" rx="27" ry="18"/>
<text text-anchor="middle" x="355.688" y="-176.3" font-family="Times,serif" font-size="14.00">User</text>
</g>
<!-- Work -->
<g id="node5" class="node"><title>Work</title>
<ellipse fill="none" stroke="black" cx="355.688" cy="-90" rx="29.5766" ry="18"/>
<text text-anchor="middle" x="355.688" y="-85.8" font-family="Times,serif" font-size="14.00">Work</text>
</g>
<!-- User&#45;&gt;Work -->
<g id="edge1" class="edge"><title>User&#45;&gt;Work</title>
<path fill="none" stroke="#b18d25" d="M355.688,-154.189C355.688,-142.971 355.688,-129.752 355.688,-118.311"/>
<ellipse fill="none" stroke="#b18d25" cx="355.688" cy="-158.436" rx="4" ry="4"/>
<polygon fill="#b18d25" stroke="#b18d25" points="355.688,-118.011 360.188,-108.011 355.688,-113.011 355.688,-108.011 355.688,-108.011 355.688,-108.011 355.688,-113.011 351.188,-108.011 355.688,-118.011 355.688,-118.011"/>
</g>
<!-- Work&#45;&gt;Inventory -->
<g id="edge2" class="edge"><title>Work&#45;&gt;Inventory</title>
<path fill="none" stroke="#852bb9" d="M355.688,-63.6398C355.688,-57.348 355.688,-50.6053 355.688,-44.3156"/>
<ellipse fill="none" stroke="#852bb9" cx="355.688" cy="-67.6966" rx="4" ry="4"/>
<ellipse fill="#852bb9" stroke="#852bb9" cx="355.688" cy="-40.1043" rx="4" ry="4"/>
</g>
</g>
</svg>
