<?xml version="1.0" encoding="UTF-8" standalone="no"?>
<!DOCTYPE svg PUBLIC "-//W3C//DTD SVG 1.1//EN"
 "http://www.w3.org/Graphics/SVG/1.1/DTD/svg11.dtd">
<!-- Generated by graphviz version 2.38.0 (20140413.2041)
 -->
<!-- Title: models_diagram Pages: 1 -->
<svg width="748pt" height="425pt"
 viewBox="0.00 0.00 747.55 425.00" xmlns="http://www.w3.org/2000/svg" xmlns:xlink="http://www.w3.org/1999/xlink">
<g id="graph0" class="graph" transform="scale(1 1) rotate(0) translate(4 421)">
<title>models_diagram</title>
<polygon fill="none" stroke="none" points="-4,4 -4,-421 743.55,-421 743.55,4 -4,4"/>
<!-- _diagram_info -->
<g id="node1" class="node"><title>_diagram_info</title>
<text text-anchor="start" x="8" y="-388.6" font-family="Times,serif" font-size="13.00">Models diagram</text>
<text text-anchor="start" x="8" y="-375.6" font-family="Times,serif" font-size="13.00">Date: Jul 18 2016 &#45; 21:16</text>
<text text-anchor="start" x="8" y="-362.6" font-family="Times,serif" font-size="13.00">Migration version: 20160719000719</text>
<text text-anchor="start" x="8" y="-349.6" font-family="Times,serif" font-size="13.00">Generated by RailRoady 1.5.1</text>
<text text-anchor="start" x="8" y="-336.6" font-family="Times,serif" font-size="13.00">http://railroady.prestonlee.com</text>
</g>
<!-- Category -->
<g id="node2" class="node"><title>Category</title>
<path fill="none" stroke="black" d="M237.825,-323.5C237.825,-323.5 461.55,-323.5 461.55,-323.5 467.55,-323.5 473.55,-329.5 473.55,-335.5 473.55,-335.5 473.55,-397.5 473.55,-397.5 473.55,-403.5 467.55,-409.5 461.55,-409.5 461.55,-409.5 237.825,-409.5 237.825,-409.5 231.825,-409.5 225.825,-403.5 225.825,-397.5 225.825,-397.5 225.825,-335.5 225.825,-335.5 225.825,-329.5 231.825,-323.5 237.825,-323.5"/>
<text text-anchor="middle" x="349.688" y="-394.3" font-family="Times,serif" font-size="14.00">Category</text>
<polyline fill="none" stroke="black" points="225.825,-387.5 473.55,-387.5 "/>
<text text-anchor="start" x="233.825" y="-372.3" font-family="Times,serif" font-size="14.00">id :integer</text>
<text text-anchor="start" x="233.825" y="-358.3" font-family="Times,serif" font-size="14.00">name :character varying</text>
<text text-anchor="start" x="233.825" y="-344.3" font-family="Times,serif" font-size="14.00">created_at :timestamp without time zone</text>
<text text-anchor="start" x="233.825" y="-330.3" font-family="Times,serif" font-size="14.00">updated_at :timestamp without time zone</text>
</g>
<!-- Inventory -->
<g id="node3" class="node"><title>Inventory</title>
<path fill="none" stroke="black" d="M503.825,-0.5C503.825,-0.5 727.55,-0.5 727.55,-0.5 733.55,-0.5 739.55,-6.5 739.55,-12.5 739.55,-12.5 739.55,-116.5 739.55,-116.5 739.55,-122.5 733.55,-128.5 727.55,-128.5 727.55,-128.5 503.825,-128.5 503.825,-128.5 497.825,-128.5 491.825,-122.5 491.825,-116.5 491.825,-116.5 491.825,-12.5 491.825,-12.5 491.825,-6.5 497.825,-0.5 503.825,-0.5"/>
<text text-anchor="middle" x="615.688" y="-113.3" font-family="Times,serif" font-size="14.00">Inventory</text>
<polyline fill="none" stroke="black" points="491.825,-106.5 739.55,-106.5 "/>
<text text-anchor="start" x="499.825" y="-91.3" font-family="Times,serif" font-size="14.00">description :character varying</text>
<text text-anchor="start" x="499.825" y="-77.3" font-family="Times,serif" font-size="14.00">serial :integer</text>
<text text-anchor="start" x="499.825" y="-63.3" font-family="Times,serif" font-size="14.00">size :integer</text>
<text text-anchor="start" x="499.825" y="-49.3" font-family="Times,serif" font-size="14.00">id :integer</text>
<text text-anchor="start" x="499.825" y="-35.3" font-family="Times,serif" font-size="14.00">category_id :integer</text>
<text text-anchor="start" x="499.825" y="-21.3" font-family="Times,serif" font-size="14.00">created_at :timestamp without time zone</text>
<text text-anchor="start" x="499.825" y="-7.3" font-family="Times,serif" font-size="14.00">updated_at :timestamp without time zone</text>
</g>
<!-- User -->
<g id="node4" class="node"><title>User</title>
<path fill="none" stroke="black" d="M503.825,-316.5C503.825,-316.5 727.55,-316.5 727.55,-316.5 733.55,-316.5 739.55,-322.5 739.55,-328.5 739.55,-328.5 739.55,-404.5 739.55,-404.5 739.55,-410.5 733.55,-416.5 727.55,-416.5 727.55,-416.5 503.825,-416.5 503.825,-416.5 497.825,-416.5 491.825,-410.5 491.825,-404.5 491.825,-404.5 491.825,-328.5 491.825,-328.5 491.825,-322.5 497.825,-316.5 503.825,-316.5"/>
<text text-anchor="middle" x="615.688" y="-401.3" font-family="Times,serif" font-size="14.00">User</text>
<polyline fill="none" stroke="black" points="491.825,-394.5 739.55,-394.5 "/>
<text text-anchor="start" x="499.825" y="-379.3" font-family="Times,serif" font-size="14.00">id :integer</text>
<text text-anchor="start" x="499.825" y="-365.3" font-family="Times,serif" font-size="14.00">name :character varying</text>
<text text-anchor="start" x="499.825" y="-351.3" font-family="Times,serif" font-size="14.00">email :character varying</text>
<text text-anchor="start" x="499.825" y="-337.3" font-family="Times,serif" font-size="14.00">created_at :timestamp without time zone</text>
<text text-anchor="start" x="499.825" y="-323.3" font-family="Times,serif" font-size="14.00">updated_at :timestamp without time zone</text>
</g>
<!-- Work -->
<g id="node5" class="node"><title>Work</title>
<path fill="none" stroke="black" d="M503.825,-165.5C503.825,-165.5 727.55,-165.5 727.55,-165.5 733.55,-165.5 739.55,-171.5 739.55,-177.5 739.55,-177.5 739.55,-267.5 739.55,-267.5 739.55,-273.5 733.55,-279.5 727.55,-279.5 727.55,-279.5 503.825,-279.5 503.825,-279.5 497.825,-279.5 491.825,-273.5 491.825,-267.5 491.825,-267.5 491.825,-177.5 491.825,-177.5 491.825,-171.5 497.825,-165.5 503.825,-165.5"/>
<text text-anchor="middle" x="615.688" y="-264.3" font-family="Times,serif" font-size="14.00">Work</text>
<polyline fill="none" stroke="black" points="491.825,-257.5 739.55,-257.5 "/>
<text text-anchor="start" x="499.825" y="-242.3" font-family="Times,serif" font-size="14.00">id :integer</text>
<text text-anchor="start" x="499.825" y="-228.3" font-family="Times,serif" font-size="14.00">name :character varying</text>
<text text-anchor="start" x="499.825" y="-214.3" font-family="Times,serif" font-size="14.00">user_id :integer</text>
<text text-anchor="start" x="499.825" y="-200.3" font-family="Times,serif" font-size="14.00">created_at :timestamp without time zone</text>
<text text-anchor="start" x="499.825" y="-186.3" font-family="Times,serif" font-size="14.00">updated_at :timestamp without time zone</text>
<text text-anchor="start" x="499.825" y="-172.3" font-family="Times,serif" font-size="14.00">inventory_id :integer</text>
</g>
<!-- User&#45;&gt;Work -->
<g id="edge1" class="edge"><title>User&#45;&gt;Work</title>
<path fill="none" stroke="#9c5e43" d="M615.688,-308.168C615.688,-302.214 615.688,-296.127 615.688,-290.084"/>
<ellipse fill="none" stroke="#9c5e43" cx="615.688" cy="-312.234" rx="4" ry="4"/>
<polygon fill="#9c5e43" stroke="#9c5e43" points="615.688,-289.984 620.188,-279.984 615.688,-284.984 615.688,-279.984 615.688,-279.984 615.688,-279.984 615.688,-284.984 611.188,-279.984 615.688,-289.984 615.688,-289.984"/>
</g>
<!-- Work&#45;&gt;Inventory -->
<g id="edge2" class="edge"><title>Work&#45;&gt;Inventory</title>
<path fill="none" stroke="#84d30c" d="M615.688,-157.015C615.688,-150.415 615.688,-143.682 615.688,-137.013"/>
<ellipse fill="none" stroke="#84d30c" cx="615.688" cy="-161.18" rx="4" ry="4"/>
<ellipse fill="#84d30c" stroke="#84d30c" cx="615.688" cy="-132.614" rx="4" ry="4"/>
</g>
</g>
</svg>
